<svg width="171" height="31" viewBox="0 0 171 31" fill="none" xmlns="http://www.w3.org/2000/svg">
<path d="M19.8182 10.3125C19.6193 9.62121 19.34 9.01042 18.9801 8.48011C18.6203 7.94034 18.1799 7.4858 17.6591 7.11648C17.1477 6.73769 16.5606 6.44886 15.8977 6.25C15.2443 6.05114 14.5199 5.9517 13.7244 5.9517C12.2377 5.9517 10.9309 6.32102 9.80398 7.05966C8.68655 7.79829 7.81534 8.87311 7.19034 10.2841C6.56534 11.6856 6.25284 13.3996 6.25284 15.4261C6.25284 17.4527 6.56061 19.1761 7.17614 20.5966C7.79167 22.017 8.66288 23.1013 9.78977 23.8494C10.9167 24.5881 12.2472 24.9574 13.7812 24.9574C15.1733 24.9574 16.3617 24.7112 17.3466 24.2188C18.3409 23.7169 19.0985 23.0114 19.6193 22.1023C20.1496 21.1932 20.4148 20.1184 20.4148 18.8778L21.6648 19.0625H14.1648V14.4318H26.3381V18.0966C26.3381 20.6534 25.7983 22.8504 24.7188 24.6875C23.6392 26.5152 22.1525 27.9261 20.2585 28.9205C18.3646 29.9053 16.196 30.3977 13.7528 30.3977C11.0256 30.3977 8.62974 29.7964 6.56534 28.5938C4.50095 27.3816 2.8911 25.6629 1.7358 23.4375C0.589962 21.2027 0.0170455 18.5511 0.0170455 15.483C0.0170455 13.125 0.357955 11.0227 1.03977 9.17614C1.73106 7.32008 2.69697 5.74811 3.9375 4.46023C5.17803 3.17235 6.62216 2.19223 8.26989 1.51989C9.91761 0.847537 11.7027 0.511363 13.625 0.511363C15.2727 0.511363 16.8068 0.75284 18.2273 1.2358C19.6477 1.70928 20.9072 2.38163 22.0057 3.25284C23.1136 4.12405 24.018 5.16098 24.7188 6.36364C25.4195 7.55682 25.8693 8.87311 26.0682 10.3125H19.8182ZM40.7024 30.4261C38.496 30.4261 36.5878 29.9574 34.978 29.0199C33.3776 28.0729 32.1418 26.7566 31.2706 25.071C30.3994 23.3759 29.9638 21.411 29.9638 19.1761C29.9638 16.9223 30.3994 14.9527 31.2706 13.267C32.1418 11.572 33.3776 10.2557 34.978 9.31818C36.5878 8.37121 38.496 7.89773 40.7024 7.89773C42.9089 7.89773 44.8123 8.37121 46.4126 9.31818C48.0225 10.2557 49.263 11.572 50.1342 13.267C51.0054 14.9527 51.4411 16.9223 51.4411 19.1761C51.4411 21.411 51.0054 23.3759 50.1342 25.071C49.263 26.7566 48.0225 28.0729 46.4126 29.0199C44.8123 29.9574 42.9089 30.4261 40.7024 30.4261ZM40.7308 25.7386C41.7346 25.7386 42.5727 25.4545 43.245 24.8864C43.9174 24.3087 44.424 23.5227 44.7649 22.5284C45.1153 21.5341 45.2905 20.4025 45.2905 19.1335C45.2905 17.8646 45.1153 16.733 44.7649 15.7386C44.424 14.7443 43.9174 13.9583 43.245 13.3807C42.5727 12.803 41.7346 12.5142 40.7308 12.5142C39.7176 12.5142 38.8653 12.803 38.174 13.3807C37.4922 13.9583 36.9761 14.7443 36.6257 15.7386C36.2848 16.733 36.1143 17.8646 36.1143 19.1335C36.1143 20.4025 36.2848 21.5341 36.6257 22.5284C36.9761 23.5227 37.4922 24.3087 38.174 24.8864C38.8653 25.4545 39.7176 25.7386 40.7308 25.7386ZM64.7472 30V0.90909H70.8977V24.929H83.3693V30H64.7472ZM97.272 30.4261C95.0277 30.4261 93.0959 29.9716 91.4766 29.0625C89.8667 28.1439 88.6262 26.8466 87.755 25.1705C86.8838 23.4848 86.4482 21.4915 86.4482 19.1903C86.4482 16.946 86.8838 14.9763 87.755 13.2812C88.6262 11.5862 89.8525 10.2652 91.4339 9.31818C93.0249 8.37121 94.8904 7.89773 97.0305 7.89773C98.4699 7.89773 99.8099 8.12973 101.05 8.59375C102.3 9.0483 103.389 9.73485 104.317 10.6534C105.255 11.572 105.984 12.7273 106.505 14.1193C107.026 15.5019 107.286 17.1212 107.286 18.9773V20.6392H88.8629V16.8892H101.59C101.59 16.018 101.401 15.2462 101.022 14.5739C100.643 13.9015 100.118 13.3759 99.4453 12.9972C98.7824 12.6089 98.0107 12.4148 97.13 12.4148C96.2114 12.4148 95.397 12.6278 94.6868 13.054C93.986 13.4706 93.4368 14.0341 93.0391 14.7443C92.6413 15.4451 92.4377 16.2263 92.4283 17.0881V20.6534C92.4283 21.733 92.6271 22.6657 93.0249 23.4517C93.4321 24.2377 94.005 24.8438 94.7436 25.2699C95.4822 25.696 96.3582 25.9091 97.3714 25.9091C98.0438 25.9091 98.6593 25.8144 99.218 25.625C99.7768 25.4356 100.255 25.1515 100.653 24.7727C101.05 24.3939 101.353 23.9299 101.562 23.3807L107.158 23.75C106.874 25.0947 106.292 26.2689 105.411 27.2727C104.54 28.267 103.413 29.0436 102.031 29.6023C100.657 30.1515 99.0713 30.4261 97.272 30.4261ZM117.457 30.4119C116.065 30.4119 114.824 30.1705 113.735 29.6875C112.646 29.1951 111.784 28.4706 111.15 27.5142C110.525 26.5483 110.212 25.3456 110.212 23.9062C110.212 22.6941 110.435 21.6761 110.88 20.8523C111.325 20.0284 111.931 19.3655 112.698 18.8636C113.465 18.3617 114.336 17.983 115.312 17.7273C116.297 17.4716 117.329 17.2917 118.408 17.1875C119.677 17.0549 120.7 16.9318 121.477 16.8182C122.253 16.6951 122.817 16.5152 123.167 16.2784C123.517 16.0417 123.692 15.6913 123.692 15.2273V15.142C123.692 14.2424 123.408 13.5464 122.84 13.054C122.281 12.5616 121.486 12.3153 120.454 12.3153C119.365 12.3153 118.498 12.5568 117.854 13.0398C117.21 13.5133 116.784 14.1098 116.576 14.8295L110.979 14.375C111.263 13.0492 111.822 11.9034 112.656 10.9375C113.489 9.96212 114.564 9.21401 115.88 8.69318C117.206 8.16288 118.74 7.89773 120.482 7.89773C121.694 7.89773 122.854 8.03977 123.962 8.32386C125.08 8.60795 126.069 9.0483 126.931 9.64489C127.802 10.2415 128.489 11.0085 128.991 11.946C129.493 12.8741 129.744 13.9867 129.744 15.2841V30H124.005V26.9744H123.835C123.484 27.6562 123.015 28.2576 122.428 28.7784C121.841 29.2898 121.136 29.6922 120.312 29.9858C119.488 30.2699 118.536 30.4119 117.457 30.4119ZM119.19 26.2358C120.08 26.2358 120.866 26.0606 121.548 25.7102C122.229 25.3504 122.764 24.8674 123.153 24.2614C123.541 23.6553 123.735 22.9687 123.735 22.2017V19.8864C123.546 20.0095 123.285 20.1231 122.954 20.2273C122.632 20.322 122.267 20.4119 121.86 20.4972C121.453 20.5729 121.046 20.6439 120.638 20.7102C120.231 20.767 119.862 20.8191 119.531 20.8665C118.82 20.9706 118.2 21.1364 117.67 21.3636C117.139 21.5909 116.728 21.8987 116.434 22.2869C116.14 22.6657 115.994 23.1392 115.994 23.7074C115.994 24.5312 116.292 25.161 116.888 25.5966C117.495 26.0227 118.262 26.2358 119.19 26.2358ZM134.438 30V8.18182H140.305V11.9886H140.532C140.93 10.6345 141.597 9.61174 142.535 8.92045C143.472 8.2197 144.552 7.86932 145.773 7.86932C146.076 7.86932 146.403 7.88826 146.754 7.92614C147.104 7.96402 147.412 8.0161 147.677 8.08239V13.4517C147.393 13.3665 147 13.2907 146.498 13.2244C145.996 13.1581 145.537 13.125 145.12 13.125C144.23 13.125 143.434 13.3191 142.734 13.7074C142.042 14.0862 141.493 14.6165 141.086 15.2983C140.688 15.9801 140.489 16.7661 140.489 17.6562V30H134.438ZM156.857 17.3864V30H150.805V8.18182H156.572V12.0312H156.828C157.311 10.7623 158.121 9.75852 159.257 9.01989C160.393 8.27178 161.771 7.89773 163.391 7.89773C164.906 7.89773 166.227 8.22917 167.354 8.89205C168.481 9.55492 169.357 10.5019 169.982 11.733C170.607 12.9545 170.919 14.4129 170.919 16.108V30H164.868V17.1875C164.877 15.8523 164.536 14.8106 163.845 14.0625C163.154 13.3049 162.202 12.9261 160.99 12.9261C160.176 12.9261 159.456 13.1013 158.831 13.4517C158.215 13.8021 157.732 14.3134 157.382 14.9858C157.041 15.6487 156.866 16.4489 156.857 17.3864Z" fill="#0F5888"/>
</svg>
